<svg xmlns="http://www.w3.org/2000/svg" viewBox="0 0 100 100">
  <defs>
    <!-- Main body gradient: upper-right highlight, lower-left deep blue -->
    <linearGradient id="bodyGrad" x1="80%" y1="5%" x2="20%" y2="95%">
      <stop offset="0%" stop-color="#7ab0ff"/>
      <stop offset="30%" stop-color="#3366ee"/>
      <stop offset="70%" stop-color="#1133cc"/>
      <stop offset="100%" stop-color="#0022aa"/>
    </linearGradient>
    <!-- Inner highlight for the 3D gloss effect -->
    <radialGradient id="gloss" cx="62%" cy="28%" r="45%">
      <stop offset="0%" stop-color="#aaccff" stop-opacity="0.6"/>
      <stop offset="100%" stop-color="#0033cc" stop-opacity="0"/>
    </radialGradient>
  </defs>
  <path d="M 26.01,85.78 L 35.68,92.71 L 44.35,97.49 L 50.25,100.00 L 63.44,93.19 L 69.97,88.89 L 73.99,85.54 L 57.16,76.94 L 49.87,80.41 L 42.84,76.94 Z" fill="url(#bodyGrad)"/>
  <path d="M 72.86,55.32 L 71.48,61.05 L 69.85,64.99 L 66.83,69.06 L 63.07,72.64 L 90.33,86.38 L 95.98,78.73 L 98.74,72.88 L 99.75,69.06 Z" fill="url(#bodyGrad)"/>
  <path d="M 27.14,55.32 L 0.00,69.18 L 3.52,78.02 L 9.80,86.50 L 36.68,72.76 L 32.79,68.70 L 30.15,65.11 L 28.27,60.45 Z" fill="url(#bodyGrad)"/>
  <path d="M 66.83,16.61 L 66.96,37.16 L 73.37,40.98 L 73.62,48.63 L 90.33,57.11 L 92.09,44.21 L 92.21,36.68 L 91.58,29.63 L 79.65,22.46 Z" fill="url(#bodyGrad)"/>
  <path d="M 33.04,16.61 L 18.97,23.18 L 8.29,29.75 L 7.79,43.61 L 9.55,57.11 L 26.13,48.75 L 26.51,41.10 L 33.04,37.04 Z" fill="url(#bodyGrad)"/>
  <path d="M 49.62,0.00 L 39.32,3.70 L 39.45,31.90 L 49.50,35.36 L 50.50,35.36 L 60.68,31.66 L 60.43,3.46 Z" fill="url(#bodyGrad)"/>
  <path d="M 26.01,85.78 L 35.68,92.71 L 44.35,97.49 L 50.25,100.00 L 63.44,93.19 L 69.97,88.89 L 73.99,85.54 L 57.16,76.94 L 49.87,80.41 L 42.84,76.94 Z" fill="url(#gloss)"/>
  <path d="M 72.86,55.32 L 71.48,61.05 L 69.85,64.99 L 66.83,69.06 L 63.07,72.64 L 90.33,86.38 L 95.98,78.73 L 98.74,72.88 L 99.75,69.06 Z" fill="url(#gloss)"/>
  <path d="M 27.14,55.32 L 0.00,69.18 L 3.52,78.02 L 9.80,86.50 L 36.68,72.76 L 32.79,68.70 L 30.15,65.11 L 28.27,60.45 Z" fill="url(#gloss)"/>
  <path d="M 66.83,16.61 L 66.96,37.16 L 73.37,40.98 L 73.62,48.63 L 90.33,57.11 L 92.09,44.21 L 92.21,36.68 L 91.58,29.63 L 79.65,22.46 Z" fill="url(#gloss)"/>
  <path d="M 33.04,16.61 L 18.97,23.18 L 8.29,29.75 L 7.79,43.61 L 9.55,57.11 L 26.13,48.75 L 26.51,41.10 L 33.04,37.04 Z" fill="url(#gloss)"/>
  <path d="M 49.62,0.00 L 39.32,3.70 L 39.45,31.90 L 49.50,35.36 L 50.50,35.36 L 60.68,31.66 L 60.43,3.46 Z" fill="url(#gloss)"/>
</svg>